# xmcd
#
# Track frame offsets:
#	150
#	19326
#	37600
#	58520
#	74995
#	91394
#	107703
#	125851
#	147090
#	167408
#	184599
#	206857
#	231397
#
# Disc length: 4474 seconds
#
# Revision: 1
# Processed by: cddbd v1.5.2PL0 Copyright (c) Steve Scherf et al.
# Submitted via: audiograbber 1.83.01
#
DISCID=bd11780d
DTITLE=The Kai Strauss Band - This Time
DYEAR=2012
DGENRE=Blues
TTITLE0=Damned if i do, Damned if i don't
TTITLE1=A good Day
TTITLE2=07:30 (Seven Thirty)
TTITLE3=This Time
TTITLE4=The Harder you love
TTITLE5=One woman man
TTITLE6=A whole lotta medicine
TTITLE7=Just the man i am
TTITLE8=I wish i'd known
TTITLE9=Still a fool
TTITLE10=No easy way
TTITLE11=Procrastination Blues
TTITLE12=Daten-CD
EXTD=
EXTT0=
EXTT1=
EXTT2=
EXTT3=
EXTT4=
EXTT5=
EXTT6=
EXTT7=
EXTT8=
EXTT9=
EXTT10=
EXTT11=
EXTT12=
PLAYORDER=
